<svg id="Calque_1" data-name="Calque 1" xmlns="http://www.w3.org/2000/svg" xmlns:xlink="http://www.w3.org/1999/xlink" viewBox="0 0 1367.85 768"><defs><style>.cls-1{fill:url(#Dégradé_sans_nom_65);}.cls-2{fill:url(#Dégradé_sans_nom_65-2);}.cls-3{fill:url(#Dégradé_sans_nom_65-3);}.cls-4{fill:url(#Dégradé_sans_nom_65-4);}</style><linearGradient id="Dégradé_sans_nom_65" y1="384" x2="1367" y2="384" gradientUnits="userSpaceOnUse"><stop offset="0" stop-color="#35ffce"/><stop offset="0.2" stop-color="#36fad1"/><stop offset="0.43" stop-color="#37ecd9"/><stop offset="0.69" stop-color="#3ad4e7"/><stop offset="0.95" stop-color="#3eb3fb"/><stop offset="1" stop-color="#3facff"/></linearGradient><linearGradient id="Dégradé_sans_nom_65-2" x1="181.91" y1="-641.58" x2="640.27" y2="-641.58" gradientTransform="translate(675.13 -138.75) rotate(93.35)" xlink:href="#Dégradé_sans_nom_65"/><linearGradient id="Dégradé_sans_nom_65-3" x1="-0.5" y1="383.5" x2="108" y2="383.5" xlink:href="#Dégradé_sans_nom_65"/><linearGradient id="Dégradé_sans_nom_65-4" x1="134" y1="471" x2="159" y2="471" xlink:href="#Dégradé_sans_nom_65"/></defs><title>bg-Ai</title><path class="cls-1" d="M1365.89,213.55c-2.11-8.45-38.24-132.86-333.39-113-15.91,1.07-104,5.4-106,5.48C676.2,116.17,678.18,25.44,682,4.33A3.7,3.7,0,0,0,678.33,0H3.7A3.7,3.7,0,0,0,0,3.7V768H0a3.67,3.67,0,0,0,2.41-.9A195.81,195.81,0,0,1,41,741.38c60.45-31.08,133.68-37.76,199.22-20.69,19.69,5.14,39.23,12.43,59.58,12.32,25.32-.14,48.5-11.47,72.69-17.32,25.09-6.06,53.34-4.41,78.59.15,22.84,4.12,44.87,11.9,67.59,16.63,41.66,8.68,74.53-5.46,114.64-13.73,29.62-6.11,60.64-9,90.62-3.81,31.11,5.38,60.29,19.52,92.07,21.43,63.21,3.81,119.27-36.09,184.11-21.74,30.29,6.7,58.8,20.32,89.76,24.2,47,5.88,92.74-11.14,139.06-15.85,43-4.38,98.72,10.32,138.12,29" transform="translate(0.5)"/><path class="cls-2" d="M1367.35,543a77.7,77.7,0,0,1-67.29-38.85l-87.65-151.81a77.75,77.75,0,0,1,0-77.7l87.65-151.81A77.7,77.7,0,0,1,1367.35,84" transform="translate(0.5)"/><path class="cls-3" d="M-.5,275A108.5,108.5,0,0,1,108,383.5,108.5,108.5,0,0,1-.5,492" transform="translate(0.5)"/><path class="cls-4" d="M134,471h0Z" transform="translate(0.5)"/></svg>